<mxfile host="app.diagrams.net" modified="2022-04-15T17:35:33.049Z" agent="5.0 (Macintosh; Intel Mac OS X 10_15_7) AppleWebKit/537.36 (KHTML, like Gecko) Chrome/100.0.4896.75 Safari/537.36" etag="gPOaWoQOh175Noq6rh_n" version="17.4.5" type="gitlab">
  <diagram id="Um05-Uil4epsUVDhMjwu" name="Page-1">
    <mxGraphModel dx="1516" dy="780" grid="1" gridSize="10" guides="1" tooltips="1" connect="1" arrows="1" fold="1" page="0" pageScale="1" pageWidth="827" pageHeight="1169" background="none" math="0" shadow="0">
      <root>
        <mxCell id="0" />
        <mxCell id="1" parent="0" />
        <mxCell id="0Z1rFAlLXEEgax6ma4VU-1" value="GET /api/health" style="edgeStyle=orthogonalEdgeStyle;rounded=0;orthogonalLoop=1;jettySize=auto;html=1;entryX=0.5;entryY=0;entryDx=0;entryDy=0;entryPerimeter=0;exitX=0.5;exitY=0;exitDx=0;exitDy=0;" edge="1" parent="1" source="DKcAij6jSDB3tuon3C6S-2" target="DKcAij6jSDB3tuon3C6S-10">
          <mxGeometry relative="1" as="geometry">
            <Array as="points">
              <mxPoint x="100" y="220" />
              <mxPoint x="345" y="220" />
            </Array>
          </mxGeometry>
        </mxCell>
        <mxCell id="0Z1rFAlLXEEgax6ma4VU-2" value="GET /api/mirror" style="edgeStyle=orthogonalEdgeStyle;rounded=0;orthogonalLoop=1;jettySize=auto;html=1;exitX=1;exitY=0.5;exitDx=0;exitDy=0;" edge="1" parent="1" source="DKcAij6jSDB3tuon3C6S-2">
          <mxGeometry relative="1" as="geometry">
            <mxPoint x="320" y="265" as="targetPoint" />
            <Array as="points">
              <mxPoint x="310" y="260" />
            </Array>
          </mxGeometry>
        </mxCell>
        <mxCell id="0Z1rFAlLXEEgax6ma4VU-3" value="POST /api/upload-random" style="edgeStyle=orthogonalEdgeStyle;rounded=0;orthogonalLoop=1;jettySize=auto;html=1;entryX=0.5;entryY=1;entryDx=0;entryDy=0;entryPerimeter=0;" edge="1" parent="1" source="DKcAij6jSDB3tuon3C6S-2" target="DKcAij6jSDB3tuon3C6S-10">
          <mxGeometry relative="1" as="geometry">
            <Array as="points">
              <mxPoint x="100" y="300" />
              <mxPoint x="345" y="300" />
            </Array>
          </mxGeometry>
        </mxCell>
        <mxCell id="DKcAij6jSDB3tuon3C6S-2" value="Client" style="aspect=fixed;perimeter=ellipsePerimeter;html=1;align=center;shadow=0;dashed=0;fontColor=#4277BB;labelBackgroundColor=#ffffff;fontSize=12;spacingTop=3;image;image=img/lib/ibm/users/browser.svg;" parent="1" vertex="1">
          <mxGeometry x="80" y="240" width="40" height="40" as="geometry" />
        </mxCell>
        <mxCell id="DKcAij6jSDB3tuon3C6S-13" value="Kubernetes" style="swimlane;fillColor=#dae8fc;strokeColor=#6c8ebf;" parent="1" vertex="1">
          <mxGeometry x="300" y="160" width="200" height="200" as="geometry" />
        </mxCell>
        <mxCell id="DKcAij6jSDB3tuon3C6S-9" value="" style="sketch=0;aspect=fixed;html=1;points=[];align=center;image;fontSize=12;image=img/lib/mscae/Kubernetes.svg;" parent="DKcAij6jSDB3tuon3C6S-13" vertex="1">
          <mxGeometry x="-10" y="-10" width="50" height="48" as="geometry" />
        </mxCell>
        <mxCell id="DKcAij6jSDB3tuon3C6S-4" value="" style="sketch=0;html=1;dashed=0;whitespace=wrap;fillColor=#2875E2;strokeColor=#ffffff;points=[[0.005,0.63,0],[0.1,0.2,0],[0.9,0.2,0],[0.5,0,0],[0.995,0.63,0],[0.72,0.99,0],[0.5,1,0],[0.28,0.99,0]];shape=mxgraph.kubernetes.icon;prIcon=pod" parent="DKcAij6jSDB3tuon3C6S-13" vertex="1">
          <mxGeometry x="100" y="70" width="40" height="40" as="geometry" />
        </mxCell>
        <mxCell id="DKcAij6jSDB3tuon3C6S-6" value="" style="sketch=0;html=1;dashed=0;whitespace=wrap;fillColor=#2875E2;strokeColor=#ffffff;points=[[0.005,0.63,0],[0.1,0.2,0],[0.9,0.2,0],[0.5,0,0],[0.995,0.63,0],[0.72,0.99,0],[0.5,1,0],[0.28,0.99,0]];shape=mxgraph.kubernetes.icon;prIcon=pod" parent="DKcAij6jSDB3tuon3C6S-13" vertex="1">
          <mxGeometry x="125" y="70" width="40" height="40" as="geometry" />
        </mxCell>
        <mxCell id="DKcAij6jSDB3tuon3C6S-7" value="" style="sketch=0;html=1;dashed=0;whitespace=wrap;fillColor=#2875E2;strokeColor=#ffffff;points=[[0.005,0.63,0],[0.1,0.2,0],[0.9,0.2,0],[0.5,0,0],[0.995,0.63,0],[0.72,0.99,0],[0.5,1,0],[0.28,0.99,0]];shape=mxgraph.kubernetes.icon;prIcon=pod" parent="DKcAij6jSDB3tuon3C6S-13" vertex="1">
          <mxGeometry x="120" y="94" width="50" height="40" as="geometry" />
        </mxCell>
        <mxCell id="DKcAij6jSDB3tuon3C6S-5" value="" style="sketch=0;html=1;dashed=0;whitespace=wrap;fillColor=#2875E2;strokeColor=#ffffff;points=[[0.005,0.63,0],[0.1,0.2,0],[0.9,0.2,0],[0.5,0,0],[0.995,0.63,0],[0.72,0.99,0],[0.5,1,0],[0.28,0.99,0]];shape=mxgraph.kubernetes.icon;prIcon=pod" parent="DKcAij6jSDB3tuon3C6S-13" vertex="1">
          <mxGeometry x="100" y="94" width="40" height="40" as="geometry" />
        </mxCell>
        <mxCell id="DKcAij6jSDB3tuon3C6S-10" value="" style="sketch=0;html=1;dashed=0;whitespace=wrap;fillColor=#2875E2;strokeColor=#ffffff;points=[[0.005,0.63,0],[0.1,0.2,0],[0.9,0.2,0],[0.5,0,0],[0.995,0.63,0],[0.72,0.99,0],[0.5,1,0],[0.28,0.99,0]];shape=mxgraph.kubernetes.icon;prIcon=svc" parent="DKcAij6jSDB3tuon3C6S-13" vertex="1">
          <mxGeometry x="21" y="80" width="40" height="40" as="geometry" />
        </mxCell>
        <mxCell id="DKcAij6jSDB3tuon3C6S-11" value="" style="sketch=0;html=1;dashed=0;whitespace=wrap;fillColor=#2875E2;strokeColor=#ffffff;points=[[0.005,0.63,0],[0.1,0.2,0],[0.9,0.2,0],[0.5,0,0],[0.995,0.63,0],[0.72,0.99,0],[0.5,1,0],[0.28,0.99,0]];shape=mxgraph.kubernetes.icon;prIcon=secret" parent="DKcAij6jSDB3tuon3C6S-13" vertex="1">
          <mxGeometry x="140" y="150" width="41.67" height="40" as="geometry" />
        </mxCell>
        <mxCell id="DKcAij6jSDB3tuon3C6S-14" value="AWS" style="swimlane;fillColor=#ffe6cc;strokeColor=#d79b00;" parent="1" vertex="1">
          <mxGeometry x="560" y="160" width="200" height="200" as="geometry" />
        </mxCell>
        <mxCell id="DKcAij6jSDB3tuon3C6S-16" value="Staging" style="sketch=0;pointerEvents=1;shadow=0;dashed=0;html=1;strokeColor=none;fillColor=#DF8C42;labelPosition=center;verticalLabelPosition=bottom;verticalAlign=top;align=center;outlineConnect=0;shape=mxgraph.veeam2.aws_s3;" parent="DKcAij6jSDB3tuon3C6S-14" vertex="1">
          <mxGeometry x="38.5" y="40" width="40" height="40" as="geometry" />
        </mxCell>
        <mxCell id="DKcAij6jSDB3tuon3C6S-1" value="Terraform State" style="sketch=0;pointerEvents=1;shadow=0;dashed=0;html=1;strokeColor=none;fillColor=#DF8C42;labelPosition=center;verticalLabelPosition=bottom;verticalAlign=top;align=center;outlineConnect=0;shape=mxgraph.veeam2.aws_s3;" parent="DKcAij6jSDB3tuon3C6S-14" vertex="1">
          <mxGeometry x="120" y="120" width="40" height="40" as="geometry" />
        </mxCell>
        <mxCell id="0Z1rFAlLXEEgax6ma4VU-16" value="GITLAB CI" style="swimlane;fillColor=#f8cecc;strokeColor=#b85450;" vertex="1" parent="1">
          <mxGeometry x="80" y="480" width="880" height="750" as="geometry" />
        </mxCell>
        <mxCell id="DKcAij6jSDB3tuon3C6S-17" value="" style="shape=image;html=1;verticalAlign=top;verticalLabelPosition=bottom;labelBackgroundColor=#ffffff;imageAspect=0;aspect=fixed;image=https://cdn4.iconfinder.com/data/icons/socialcones/508/Gitlab-128.png" parent="0Z1rFAlLXEEgax6ma4VU-16" vertex="1">
          <mxGeometry x="10" y="30" width="80" height="80" as="geometry" />
        </mxCell>
        <mxCell id="0Z1rFAlLXEEgax6ma4VU-18" value="Application" style="swimlane;horizontal=0;" vertex="1" parent="0Z1rFAlLXEEgax6ma4VU-16">
          <mxGeometry x="80.5" y="170" width="719" height="210" as="geometry" />
        </mxCell>
        <mxCell id="DKcAij6jSDB3tuon3C6S-19" value="Test" style="rounded=1;whiteSpace=wrap;html=1;" parent="0Z1rFAlLXEEgax6ma4VU-18" vertex="1">
          <mxGeometry x="149" y="70" width="120" height="60" as="geometry" />
        </mxCell>
        <mxCell id="DKcAij6jSDB3tuon3C6S-20" value="Build" style="rounded=1;whiteSpace=wrap;html=1;" parent="0Z1rFAlLXEEgax6ma4VU-18" vertex="1">
          <mxGeometry x="358" y="70" width="120" height="60" as="geometry" />
        </mxCell>
        <mxCell id="0Z1rFAlLXEEgax6ma4VU-4" style="edgeStyle=orthogonalEdgeStyle;rounded=0;orthogonalLoop=1;jettySize=auto;html=1;entryX=0;entryY=0.5;entryDx=0;entryDy=0;" edge="1" parent="0Z1rFAlLXEEgax6ma4VU-18" source="DKcAij6jSDB3tuon3C6S-19" target="DKcAij6jSDB3tuon3C6S-20">
          <mxGeometry relative="1" as="geometry" />
        </mxCell>
        <mxCell id="0Z1rFAlLXEEgax6ma4VU-17" value="only master" style="edgeLabel;html=1;align=center;verticalAlign=middle;resizable=0;points=[];" vertex="1" connectable="0" parent="0Z1rFAlLXEEgax6ma4VU-4">
          <mxGeometry x="-0.7833" y="-1" relative="1" as="geometry">
            <mxPoint x="30" y="-11" as="offset" />
          </mxGeometry>
        </mxCell>
        <mxCell id="0Z1rFAlLXEEgax6ma4VU-8" style="edgeStyle=orthogonalEdgeStyle;rounded=0;orthogonalLoop=1;jettySize=auto;html=1;entryX=0;entryY=0.5;entryDx=0;entryDy=0;" edge="1" parent="0Z1rFAlLXEEgax6ma4VU-18" source="0Z1rFAlLXEEgax6ma4VU-7" target="DKcAij6jSDB3tuon3C6S-19">
          <mxGeometry relative="1" as="geometry" />
        </mxCell>
        <mxCell id="0Z1rFAlLXEEgax6ma4VU-7" value="START" style="ellipse;whiteSpace=wrap;html=1;aspect=fixed;" vertex="1" parent="0Z1rFAlLXEEgax6ma4VU-18">
          <mxGeometry x="49" y="77.5" width="45" height="45" as="geometry" />
        </mxCell>
        <mxCell id="0Z1rFAlLXEEgax6ma4VU-9" value="END" style="ellipse;whiteSpace=wrap;html=1;aspect=fixed;" vertex="1" parent="0Z1rFAlLXEEgax6ma4VU-18">
          <mxGeometry x="619" y="77.5" width="45" height="45" as="geometry" />
        </mxCell>
        <mxCell id="0Z1rFAlLXEEgax6ma4VU-11" style="edgeStyle=orthogonalEdgeStyle;rounded=0;orthogonalLoop=1;jettySize=auto;html=1;entryX=0;entryY=0.5;entryDx=0;entryDy=0;" edge="1" parent="0Z1rFAlLXEEgax6ma4VU-18" source="DKcAij6jSDB3tuon3C6S-20" target="0Z1rFAlLXEEgax6ma4VU-9">
          <mxGeometry relative="1" as="geometry" />
        </mxCell>
        <mxCell id="DKcAij6jSDB3tuon3C6S-18" value="" style="sketch=0;aspect=fixed;html=1;points=[];align=center;image;fontSize=12;image=img/lib/mscae/Docker.svg;" parent="0Z1rFAlLXEEgax6ma4VU-18" vertex="1">
          <mxGeometry x="379.50000000000006" y="140" width="33.54" height="27.5" as="geometry" />
        </mxCell>
        <mxCell id="DKcAij6jSDB3tuon3C6S-24" value="Gitlab Container Registry" style="sketch=0;html=1;fillColor=#5184F3;strokeColor=none;verticalAlign=top;labelPosition=center;verticalLabelPosition=bottom;align=center;spacingTop=-6;fontSize=11;fontStyle=1;fontColor=#999999;shape=mxgraph.gcp2.hexIcon;prIcon=container_registry" parent="0Z1rFAlLXEEgax6ma4VU-18" vertex="1">
          <mxGeometry x="429.5" y="128.75" width="58.37" height="50" as="geometry" />
        </mxCell>
        <mxCell id="0Z1rFAlLXEEgax6ma4VU-19" value="Infrastructure" style="swimlane;horizontal=0;" vertex="1" parent="0Z1rFAlLXEEgax6ma4VU-16">
          <mxGeometry x="80.5" y="400" width="719" height="200" as="geometry" />
        </mxCell>
        <mxCell id="DKcAij6jSDB3tuon3C6S-21" value="Validate" style="rounded=1;whiteSpace=wrap;html=1;" parent="0Z1rFAlLXEEgax6ma4VU-19" vertex="1">
          <mxGeometry x="149" y="70" width="120" height="60" as="geometry" />
        </mxCell>
        <mxCell id="DKcAij6jSDB3tuon3C6S-22" value="Plan" style="rounded=1;whiteSpace=wrap;html=1;" parent="0Z1rFAlLXEEgax6ma4VU-19" vertex="1">
          <mxGeometry x="309" y="70" width="120" height="60" as="geometry" />
        </mxCell>
        <mxCell id="0Z1rFAlLXEEgax6ma4VU-5" style="edgeStyle=orthogonalEdgeStyle;rounded=0;orthogonalLoop=1;jettySize=auto;html=1;entryX=0;entryY=0.5;entryDx=0;entryDy=0;" edge="1" parent="0Z1rFAlLXEEgax6ma4VU-19" source="DKcAij6jSDB3tuon3C6S-21" target="DKcAij6jSDB3tuon3C6S-22">
          <mxGeometry relative="1" as="geometry" />
        </mxCell>
        <mxCell id="DKcAij6jSDB3tuon3C6S-23" value="Apply" style="rounded=1;whiteSpace=wrap;html=1;" parent="0Z1rFAlLXEEgax6ma4VU-19" vertex="1">
          <mxGeometry x="469" y="70" width="120" height="60" as="geometry" />
        </mxCell>
        <mxCell id="0Z1rFAlLXEEgax6ma4VU-6" style="edgeStyle=orthogonalEdgeStyle;rounded=0;orthogonalLoop=1;jettySize=auto;html=1;entryX=0;entryY=0.5;entryDx=0;entryDy=0;" edge="1" parent="0Z1rFAlLXEEgax6ma4VU-19" source="DKcAij6jSDB3tuon3C6S-22" target="DKcAij6jSDB3tuon3C6S-23">
          <mxGeometry relative="1" as="geometry" />
        </mxCell>
        <mxCell id="0Z1rFAlLXEEgax6ma4VU-14" style="edgeStyle=orthogonalEdgeStyle;rounded=0;orthogonalLoop=1;jettySize=auto;html=1;entryX=0;entryY=0.5;entryDx=0;entryDy=0;" edge="1" parent="0Z1rFAlLXEEgax6ma4VU-19" source="0Z1rFAlLXEEgax6ma4VU-12" target="DKcAij6jSDB3tuon3C6S-21">
          <mxGeometry relative="1" as="geometry" />
        </mxCell>
        <mxCell id="0Z1rFAlLXEEgax6ma4VU-12" value="START" style="ellipse;whiteSpace=wrap;html=1;aspect=fixed;" vertex="1" parent="0Z1rFAlLXEEgax6ma4VU-19">
          <mxGeometry x="49" y="77.5" width="45" height="45" as="geometry" />
        </mxCell>
        <mxCell id="0Z1rFAlLXEEgax6ma4VU-13" value="END" style="ellipse;whiteSpace=wrap;html=1;aspect=fixed;" vertex="1" parent="0Z1rFAlLXEEgax6ma4VU-19">
          <mxGeometry x="619" y="77.5" width="45" height="45" as="geometry" />
        </mxCell>
        <mxCell id="0Z1rFAlLXEEgax6ma4VU-15" style="edgeStyle=orthogonalEdgeStyle;rounded=0;orthogonalLoop=1;jettySize=auto;html=1;" edge="1" parent="0Z1rFAlLXEEgax6ma4VU-19" source="DKcAij6jSDB3tuon3C6S-23" target="0Z1rFAlLXEEgax6ma4VU-13">
          <mxGeometry relative="1" as="geometry" />
        </mxCell>
        <mxCell id="0Z1rFAlLXEEgax6ma4VU-21" value="Terraform State bucket" style="sketch=0;pointerEvents=1;shadow=0;dashed=0;html=1;strokeColor=none;fillColor=#DF8C42;labelPosition=center;verticalLabelPosition=bottom;verticalAlign=top;align=center;outlineConnect=0;shape=mxgraph.veeam2.aws_s3;" vertex="1" parent="0Z1rFAlLXEEgax6ma4VU-19">
          <mxGeometry x="479.5" y="140" width="40.5" height="40" as="geometry" />
        </mxCell>
      </root>
    </mxGraphModel>
  </diagram>
</mxfile>
